<svg width="741" height="740" viewBox="0 0 741 740" fill="none" xmlns="http://www.w3.org/2000/svg">
<g clip-path="url(#clip0_16:2)">
<path fill-rule="evenodd" clip-rule="evenodd" d="M741 370.01C741 574.57 575.17 740.39 370.62 740.39C166.07 740.39 0.22998 574.56 0.22998 370.01C0.22998 165.45 166.06 -0.369995 370.61 -0.369995C575.16 -0.369995 741 165.45 741 370.01Z" fill="url(#paint0_linear_16:2)"/>
<path d="M265.09 533.45C267.82 525.35 272.35 517.92 278.72 512.2C282.62 508.7 287.2 505.83 292.45 503.85C291.99 503.41 291.53 502.97 291.08 502.53C277 488.67 267.46 470.69 262.14 450.93C261.33 455.54 260.64 460.02 260.1 464.26C258.92 473.47 258.41 481.56 258.89 487.44L259.32 493.21C260.2 505.25 261.42 521.89 265.09 533.45Z" fill="#666666"/>
<path d="M299.97 510.24C293.73 511.73 288.51 514.6 284.29 518.39C278.35 523.72 274.33 530.91 272.16 538.72C269.97 546.63 269.7 555.17 271.28 563.11C272.76 570.52 275.85 577.34 280.5 582.52C283.34 585.68 286.73 588.72 290.53 591.6C304.87 602.45 324.87 610.85 343.59 614.46C361.72 617.96 378.38 617.02 386.82 609.43C387.62 608.71 388.35 607.93 388.99 607.08C396.41 597.28 395.81 584.2 390.48 570.91C384.07 554.92 370.96 538.77 356.37 527.16C349.63 528.85 341.99 528.87 333.58 526.62C320.69 523.16 309.51 517.53 299.97 510.24Z" fill="#999999"/>
<path d="M270.53 558.06C270.7 559.76 270.95 561.45 271.28 563.1C272.76 570.51 275.85 577.33 280.5 582.51C283.34 585.67 286.73 588.71 290.53 591.59C304.87 602.44 324.87 610.84 343.59 614.45C361.72 617.95 378.38 617.01 386.82 609.42C387.62 608.7 388.35 607.92 388.99 607.07C396.41 597.27 395.81 584.19 390.48 570.9C384.07 554.91 370.96 538.76 356.37 527.15C349.63 528.84 341.99 528.86 333.58 526.61C333.14 526.49 332.71 526.37 332.28 526.25C337.67 532.64 346.03 542.25 354.39 550.62C368.41 564.64 374.91 594.17 331.86 590.17C288.86 586.17 270.56 558.11 270.53 558.06Z" fill="#666666"/>
<path d="M498.66 575.68C497.21 574.07 495.9 572.32 494.72 570.48C489.39 562.16 486.85 544.93 493.92 535.83C493.7 544.08 495.71 556.6 501.72 565.99C505.73 572.25 511.6 577.05 519.88 577.91C527.83 578.74 538.53 569.61 548.52 556.18C559.75 541.08 569.63 520.78 573.84 502.52C577.01 488.77 571.83 477.11 563.03 469.2C558.63 465.24 553.34 462.21 547.72 460.29C542.1 458.37 536.18 457.57 530.55 458.08C520.22 459.02 510.73 464.45 505.73 475.64C503.25 481.98 500.11 488.15 496.23 494.08C495.6 495.04 494.87 496.1 494.06 497.25C491.2 501.27 488.12 504.53 484.89 507.11C484.53 511.9 483.77 516.43 482.66 520.7C477.74 539.69 465.99 553.35 451.71 562.06C450.37 562.88 449 563.65 447.62 564.38C460.14 567.71 481.01 572.92 498.66 575.68Z" fill="#999999"/>
<path d="M498.66 575.68C497.21 574.07 495.9 572.32 494.72 570.48C489.39 562.16 486.85 544.93 493.92 535.83C493.7 544.08 495.71 556.6 501.72 565.99C505.73 572.25 511.6 577.05 519.88 577.91C527.83 578.74 538.53 569.61 548.52 556.18C556.16 545.91 563.17 533.24 568.2 520.43C554.88 546.84 538.71 567.14 517.58 560.64C496.45 554.13 519.61 461.09 519.63 461.03C513.82 463.83 508.89 468.59 505.73 475.64C503.25 481.98 500.11 488.15 496.23 494.08C495.6 495.04 494.87 496.1 494.06 497.25C491.2 501.27 488.12 504.53 484.89 507.11C484.53 511.9 483.77 516.43 482.66 520.7C477.74 539.69 465.99 553.35 451.71 562.06C450.37 562.88 449 563.65 447.62 564.38C460.14 567.71 481.01 572.92 498.66 575.68Z" fill="#666666"/>
<path d="M253.36 517.89C252.16 509.46 251.53 500.88 251.02 493.79C250.88 491.91 250.75 490.15 250.59 488.09C250.25 483.84 250.36 478.58 250.85 472.65C247.51 470.99 243.61 469.66 239.54 469.4C235.8 469.16 231.87 469.83 228.07 472.02C222.42 475.27 219.27 484.65 219.58 494.36C219.72 498.63 220.55 502.91 222.16 506.73C223.7 510.38 225.97 513.6 229.03 515.93C234.32 519.95 242.26 521.37 253.36 517.89Z" fill="#666666"/>
<path d="M304.71 308.41C304.04 309 303.34 309.67 302.63 310.4C287.64 325.63 276.87 346.23 270.87 368.64C264.79 391.32 263.6 415.79 267.83 438.42C272.03 460.87 281.55 481.47 296.92 496.6C307.17 506.69 320.05 514.37 335.74 518.57C349.9 522.36 361.25 518.33 368.94 510.81C372.86 506.97 375.87 502.23 377.84 497.16C379.82 492.07 380.76 486.65 380.55 481.47C380.17 472.18 376.04 463.67 367.45 459.4C363.99 457.68 360.66 455.84 357.48 453.91C334.41 439.84 318.56 420.13 311.38 398.05C304.17 375.88 305.7 351.39 317.39 327.86C318.81 325.01 320.36 322.19 322.07 319.39C322.59 318.54 323.04 317.74 323.43 316.99C321.94 316.48 320.49 315.96 319.07 315.41C313.82 313.36 309.04 311.03 304.71 308.41Z" fill="#999999"/>
<path d="M304.71 308.41C304.04 309 303.34 309.67 302.63 310.4C287.64 325.63 276.87 346.23 270.87 368.64C264.79 391.32 263.6 415.79 267.83 438.42C272.03 460.87 281.55 481.47 296.92 496.6C307.17 506.69 320.05 514.37 335.74 518.57C349.9 522.36 361.25 518.33 368.94 510.81C372.86 506.97 375.87 502.23 377.84 497.16C379.82 492.07 380.76 486.65 380.55 481.47C380.36 476.71 379.18 472.14 376.91 468.26C354.09 514.41 278.33 486.27 276.56 420.29C275.17 368.67 299.54 327.24 310.32 311.53C308.37 310.53 306.5 309.5 304.71 308.41Z" fill="#666666"/>
<path d="M304.71 308.41C304.04 309 303.34 309.67 302.63 310.4C300.05 313.02 297.59 315.8 295.27 318.72C300.81 322.58 307.22 325.93 314.52 328.76C315.2 329.02 315.89 329.28 316.59 329.54C316.86 328.97 317.13 328.41 317.41 327.85C318.83 325 320.38 322.18 322.09 319.38C322.61 318.53 323.06 317.73 323.45 316.98C321.96 316.47 320.51 315.95 319.09 315.4C313.82 313.36 309.04 311.03 304.71 308.41Z" fill="#666666"/>
<path d="M371.41 122.11C318.86 122.11 308.59 152.48 298.19 183.26C296.35 188.7 294.51 194.16 292.43 199.53C285.85 216.53 282.11 232.01 281.45 245.73C280.74 260.43 283.57 273.09 290.2 283.44C296.84 293.79 307.37 301.96 322.08 307.65C335.18 312.73 351.57 315.85 371.42 316.82C391.27 315.85 407.65 312.73 420.76 307.65C435.46 301.95 446 293.79 452.63 283.44C459.26 273.1 462.09 260.43 461.38 245.73C460.28 223 451.73 204.25 444.64 183.26C434.23 152.48 423.97 122.11 371.41 122.11Z" fill="#666666"/>
<path d="M371.41 124.8C325.98 124.8 317.11 151.05 308.12 177.65C306.53 182.36 304.94 187.07 303.14 191.71C297.45 206.4 294.22 219.78 293.65 231.65C293.04 244.35 295.48 255.3 301.21 264.24C306.95 273.19 316.05 280.25 328.76 285.17C340.09 289.56 354.25 292.26 371.41 293.1C388.57 292.26 402.73 289.56 414.06 285.17C426.77 280.25 435.87 273.19 441.61 264.24C447.34 255.3 449.79 244.35 449.17 231.65C448.22 212.01 440.83 195.8 434.7 177.65C425.71 151.05 416.84 124.8 371.41 124.8Z" fill="#999999"/>
<path d="M434.27 310.6C439.1 319.2 443.35 333.27 447.74 347.8C449.95 355.11 452.19 362.54 454.53 369.35C454.18 365.2 453.46 361.23 452.26 357.48C464.77 361.38 461.81 394.54 459.56 405.96C455.7 425.57 447.76 445.47 437.61 461.97C431.07 472.6 432.49 483.9 438.1 492.46C440.47 496.07 443.57 499.2 447.11 501.58H447.13C450.67 503.97 454.65 505.62 458.78 506.31C468.3 507.88 478.89 504.27 487.29 492.43C487.9 491.57 488.56 490.59 489.27 489.52C509.76 458.21 507.89 419.28 495.96 384.63C484.03 349.99 462.19 319.77 442.5 305.56C439.94 307.36 437.2 309.04 434.27 310.6Z" fill="#999999"/>
<path d="M435.81 465.34C431.41 474.95 433.07 484.81 438.1 492.46C440.47 496.07 443.57 499.2 447.11 501.58H447.13C450.67 503.97 454.65 505.62 458.78 506.31C468.3 507.88 478.89 504.27 487.29 492.43C487.9 491.57 488.56 490.59 489.27 489.52C509.76 458.21 507.89 419.28 495.96 384.63C485.12 353.15 466.1 325.33 447.94 309.85C485.16 352.15 495.56 410.22 494.06 435.75C492.56 461.28 480.8 482.56 456.27 479.55C442.68 477.88 437.62 471.08 435.81 465.34Z" fill="#666666"/>
<path d="M434.27 310.6C436.23 314.09 438.09 318.48 439.91 323.43C444.82 320.76 449.19 317.79 453.04 314.51C449.5 311.07 445.96 308.07 442.49 305.56C439.94 307.36 437.2 309.04 434.27 310.6Z" fill="#666666"/>
<path d="M438.44 146.59C451.08 142.36 462.46 144.87 471.97 151.24C481.77 157.8 489.48 168.52 494.43 180.07C494.63 180.52 494.85 181.05 495.08 181.6C500.28 194.42 503.48 210.01 506.91 226.73C516.86 275.17 528.84 333.47 598.79 354.96L598.78 354.98C611.2 358 622.99 359.62 632.74 359.65C640.34 359.68 646.51 358.74 650.49 356.77C653.32 355.37 654.78 353.35 654.37 350.67C653.44 344.67 646.21 335.8 630.16 323.6C574.34 281.17 554.81 235.11 538.74 197.21C531.22 179.47 524.47 163.57 515.14 151C510.26 144.43 504.8 139.3 499.04 135.41C487.64 127.71 475.1 124.88 463.68 125.26C452.33 125.63 442.17 129.14 435.42 134.15C434.12 135.12 432.95 136.14 431.94 137.2C434.37 140.16 436.51 143.3 438.44 146.59Z" fill="#999999"/>
<path d="M543.24 332.26C514.17 303.36 505.96 263.42 498.77 228.4C495.43 212.12 492.31 196.95 487.36 184.74L486.79 183.35C482.42 173.15 475.74 163.77 467.35 158.16C460.24 153.4 451.79 151.4 442.4 154.1C444.55 158.62 446.43 163.34 448.19 168.15C451.28 169.52 454.31 171.72 457.13 175.04C459.99 178.42 462.64 182.99 464.86 189.06V189.08C468.08 197.89 470.32 207.73 472.73 218.35C479.86 249.8 488.58 288.2 529.82 322.62C533.91 326.03 538.43 329.25 543.24 332.26Z" fill="#666666"/>
<path d="M375.6 255.91C375.65 261.94 375.72 273.45 375.61 277.61C377.78 281.21 384.6 287.08 389.83 283.3C389.18 292.29 377.89 290.92 371.42 285.33C364.95 290.93 353.66 292.29 353.01 283.3C358.24 287.08 365.07 281.21 367.23 277.61C367.12 273.45 367.19 261.95 367.24 255.91C359.26 254.47 348.76 249.29 358.55 240.18C358.57 240.2 365.81 247.98 371.4 247.98C376.98 247.98 384.23 240.2 384.25 240.18C394.04 249.28 383.58 254.47 375.6 255.91Z" fill="white"/>
<path d="M422.72 197.22C427.42 197.22 431.23 203.33 431.23 210.86C431.23 218.39 427.42 224.5 422.72 224.5C418.02 224.5 414.21 218.39 414.21 210.86C414.21 203.33 418.02 197.22 422.72 197.22Z" fill="white"/>
<path d="M320.1 197.22C324.8 197.22 328.61 203.33 328.61 210.86C328.61 218.39 324.8 224.5 320.1 224.5C315.4 224.5 311.59 218.39 311.59 210.86C311.59 203.33 315.4 197.22 320.1 197.22Z" fill="white"/>
<path d="M199.58 332.26C204.39 329.26 208.91 326.04 213.02 322.61C254.26 288.19 262.97 249.78 270.11 218.34C272.52 207.73 274.75 197.88 277.98 189.07V189.05C280.2 182.98 282.84 178.41 285.71 175.03C288.52 171.71 291.55 169.51 294.65 168.14C296.41 163.33 298.29 158.61 300.44 154.09C291.05 151.39 282.6 153.39 275.49 158.15C267.1 163.76 260.42 173.15 256.05 183.34L255.47 184.73C250.52 196.94 247.4 212.11 244.06 228.39C236.86 263.42 228.65 303.36 199.58 332.26Z" fill="#666666"/>
<path d="M310.87 137.22C309.86 136.16 308.69 135.14 307.39 134.17C300.64 129.16 290.47 125.65 279.13 125.28C267.71 124.9 255.17 127.73 243.77 135.43C238.02 139.32 232.55 144.44 227.67 151.02C218.33 163.59 211.59 179.5 204.07 197.23C188 235.13 168.47 281.19 112.65 323.62C96.61 335.81 89.3701 344.69 88.4401 350.69C88.0301 353.36 89.4901 355.38 92.3101 356.79C96.2901 358.76 102.47 359.69 110.06 359.67C119.81 359.64 131.6 358.02 144.02 355L144.01 354.98C213.96 333.48 225.94 275.19 235.89 226.75C239.32 210.03 242.53 194.44 247.72 181.62L248.36 180.08C253.32 168.54 261.02 157.82 270.83 151.25C280.35 144.88 291.72 142.37 304.37 146.6C306.31 143.3 308.46 140.16 310.87 137.22Z" fill="#999999"/>
<path d="M310.87 137.22C309.86 136.16 308.69 135.14 307.39 134.17C302.72 130.7 296.42 127.96 289.22 126.47C286.94 129.99 282.87 133.38 276.06 136.16C249.03 147.17 228.51 168.2 220.5 221.76C212.49 275.32 170.1 354.66 88.4301 352.29C88.7101 354.19 90.0801 355.69 92.3201 356.79C96.3001 358.76 102.48 359.69 110.07 359.67C119.82 359.64 131.61 358.02 144.03 355L144.02 354.98C213.97 333.48 225.95 275.19 235.9 226.75C239.33 210.03 242.54 194.44 247.73 181.62L248.37 180.08C253.33 168.54 261.03 157.82 270.84 151.25C280.36 144.88 291.73 142.37 304.38 146.6C306.31 143.3 308.46 140.16 310.87 137.22Z" fill="#666666"/>
<path d="M396.59 564.07C399.67 564.75 402.93 565.17 406.29 565.35C419.71 566.05 434.67 562.7 447.37 554.96C459.95 547.29 470.29 535.29 474.61 518.62C475.12 516.64 475.55 514.59 475.89 512.47C469.78 514.99 463.46 515.52 457.43 514.53C452.06 513.64 446.95 511.53 442.46 508.5C437.98 505.47 434.08 501.54 431.12 497.03C423.87 485.97 422.04 471.36 430.5 457.61C440.16 441.91 447.7 422.99 451.37 404.37C452.34 399.43 453.19 394.51 453.8 389.69C448.56 379.38 444.09 364.55 439.75 350.18C435.37 335.68 431.14 321.67 426.74 314.19C425.76 314.61 424.76 315.01 423.74 315.4C409.76 320.81 392.44 324.13 371.6 325.13H371.21C356.16 324.4 342.95 322.47 331.51 319.42L331.27 319.92H331.25C330.63 321.2 329.93 322.46 329.17 323.71C327.59 326.31 326.15 328.92 324.85 331.52C314.17 353.01 312.75 375.32 319.3 395.45C325.87 415.67 340.48 433.78 361.81 446.78C364.79 448.6 367.9 450.31 371.12 451.92C382.76 457.7 388.36 468.95 388.85 481.13C389.11 487.44 387.97 494.01 385.58 500.15C383.19 506.31 379.53 512.06 374.75 516.74C371.95 519.48 368.78 521.85 365.25 523.73C378.28 534.92 389.86 549.4 396.59 564.07Z" fill="#999999"/>
<path d="M339.74 321.36C336.9 320.77 334.16 320.13 331.52 319.42L331.28 319.92H331.26C330.64 321.2 329.94 322.46 329.18 323.71C327.6 326.31 326.16 328.92 324.86 331.52C314.18 353.01 312.76 375.32 319.31 395.45C322.73 405.98 328.33 415.94 335.93 424.9C306.52 373.35 327.79 336.24 339.74 321.36Z" fill="#666666"/>
<path d="M396.59 564.07C399.67 564.75 402.93 565.17 406.29 565.35C419.71 566.05 434.67 562.7 447.37 554.96C459.95 547.29 470.29 535.29 474.61 518.62C475.12 516.64 475.55 514.59 475.89 512.47C469.78 514.99 463.46 515.52 457.43 514.53C452.06 513.64 446.95 511.53 442.46 508.5C437.98 505.47 434.08 501.54 431.12 497.03C428.85 493.57 427.11 489.77 426.06 485.75C423.67 490.25 419.07 495.57 410.46 496.82C399.41 498.43 391.41 495.21 387.72 493.22C387.19 495.57 386.48 497.89 385.6 500.15C383.21 506.31 379.55 512.06 374.77 516.74C371.97 519.48 368.8 521.85 365.27 523.73C378.28 534.92 389.86 549.4 396.59 564.07Z" fill="#666666"/>
<path d="M432.39 327.09C430.52 321.89 428.65 317.42 426.74 314.19C425.76 314.61 424.76 315.01 423.74 315.4C409.76 320.81 392.44 324.13 371.6 325.13H371.21C356.16 324.4 342.95 322.47 331.51 319.42L331.27 319.92H331.25C330.63 321.2 329.93 322.46 329.17 323.71C327.59 326.31 326.15 328.92 324.85 331.52L324.54 332.15C337.74 336.02 353.32 338.45 371.4 339.33C394.29 338.21 413.19 334.61 428.3 328.75C429.71 328.23 431.07 327.67 432.39 327.09Z" fill="#666666"/>
<path d="M265.09 533.45C267.82 525.35 272.35 517.92 278.72 512.2C282.62 508.7 287.2 505.83 292.45 503.85C291.99 503.41 291.53 502.97 291.08 502.53C277 488.67 267.46 470.69 262.14 450.93C261.33 455.54 260.64 460.02 260.1 464.26C258.92 473.47 258.41 481.56 258.89 487.44L259.32 493.21C260.2 505.25 261.42 521.89 265.09 533.45ZM299.97 510.24C293.73 511.73 288.51 514.6 284.29 518.39C278.35 523.72 274.33 530.91 272.16 538.72C269.97 546.63 269.7 555.17 271.28 563.11C272.76 570.52 275.85 577.34 280.5 582.52C283.34 585.68 286.73 588.72 290.53 591.6C304.87 602.45 324.87 610.85 343.59 614.46C361.72 617.96 378.38 617.02 386.82 609.43C387.62 608.71 388.35 607.93 388.99 607.08C396.41 597.28 395.81 584.2 390.48 570.91C384.07 554.92 370.96 538.77 356.37 527.16C349.63 528.85 341.99 528.87 333.58 526.62C320.69 523.16 309.51 517.53 299.97 510.24ZM498.66 575.68C497.21 574.07 495.9 572.32 494.72 570.48C489.39 562.16 486.85 544.93 493.92 535.83C493.7 544.08 495.71 556.6 501.72 565.99C505.73 572.25 511.6 577.05 519.88 577.91C527.83 578.74 538.53 569.61 548.52 556.18C559.75 541.08 569.63 520.78 573.84 502.52C577.01 488.77 571.83 477.11 563.03 469.2C558.63 465.24 553.34 462.21 547.72 460.29C542.1 458.37 536.18 457.57 530.55 458.08C520.22 459.02 510.73 464.45 505.73 475.64C503.25 481.98 500.11 488.15 496.23 494.08C495.6 495.04 494.87 496.1 494.06 497.25C491.2 501.27 488.12 504.53 484.89 507.11C484.53 511.9 483.77 516.43 482.66 520.7C477.74 539.69 465.99 553.35 451.71 562.06C450.37 562.88 449 563.65 447.62 564.38C460.14 567.71 481.01 572.92 498.66 575.68ZM253.36 517.89C252.16 509.46 251.53 500.88 251.02 493.79C250.88 491.91 250.75 490.15 250.59 488.09C250.25 483.84 250.36 478.58 250.85 472.65C247.51 470.99 243.61 469.66 239.54 469.4C235.8 469.16 231.87 469.83 228.07 472.02C222.42 475.27 219.27 484.65 219.58 494.36C219.72 498.63 220.55 502.91 222.16 506.73C223.7 510.38 225.97 513.6 229.03 515.93C234.32 519.95 242.26 521.37 253.36 517.89ZM304.71 308.41C304.04 309 303.34 309.67 302.63 310.4C287.64 325.63 276.87 346.23 270.87 368.64C264.79 391.32 263.6 415.79 267.83 438.42C272.03 460.87 281.55 481.47 296.92 496.6C307.17 506.69 320.05 514.37 335.74 518.57C349.9 522.36 361.25 518.33 368.94 510.81C372.86 506.97 375.87 502.23 377.84 497.16C379.82 492.07 380.76 486.65 380.55 481.47C380.17 472.18 376.04 463.67 367.45 459.4C363.99 457.68 360.66 455.84 357.48 453.91C334.41 439.84 318.56 420.13 311.38 398.05C304.17 375.88 305.7 351.39 317.39 327.86C318.81 325.01 320.36 322.19 322.07 319.39C322.59 318.54 323.04 317.74 323.43 316.99C321.94 316.48 320.49 315.96 319.07 315.41C313.82 313.36 309.04 311.03 304.71 308.41ZM371.41 122.11C318.86 122.11 308.59 152.48 298.19 183.26C296.35 188.7 294.51 194.16 292.43 199.53C285.85 216.53 282.11 232.01 281.45 245.73C280.74 260.43 283.57 273.09 290.2 283.44C296.84 293.79 307.37 301.96 322.08 307.65C335.18 312.73 351.57 315.85 371.42 316.82C391.27 315.85 407.65 312.73 420.76 307.65C435.46 301.95 446 293.79 452.63 283.44C459.26 273.1 462.09 260.43 461.38 245.73C460.28 223 451.73 204.25 444.64 183.26C434.23 152.48 423.97 122.11 371.41 122.11ZM434.27 310.6C439.1 319.2 443.35 333.27 447.74 347.8C449.95 355.11 452.19 362.54 454.53 369.35C454.18 365.2 453.46 361.23 452.26 357.48C464.77 361.38 461.81 394.54 459.56 405.96C455.7 425.57 447.76 445.47 437.61 461.97C431.07 472.6 432.49 483.9 438.1 492.46C440.47 496.07 443.57 499.2 447.11 501.58H447.13C450.67 503.97 454.65 505.62 458.78 506.31C468.3 507.88 478.89 504.27 487.29 492.43C487.9 491.57 488.56 490.59 489.27 489.52C509.76 458.21 507.89 419.28 495.96 384.63C484.03 349.99 462.19 319.77 442.5 305.56C439.94 307.36 437.2 309.04 434.27 310.6ZM438.44 146.59C451.08 142.36 462.46 144.87 471.97 151.24C481.77 157.8 489.48 168.52 494.43 180.07C494.63 180.52 494.85 181.05 495.08 181.6C500.28 194.42 503.48 210.01 506.91 226.73C516.86 275.17 528.84 333.47 598.79 354.96L598.78 354.98C611.2 358 622.99 359.62 632.74 359.65C640.34 359.68 646.51 358.74 650.49 356.77C653.32 355.37 654.78 353.35 654.37 350.67C653.44 344.67 646.21 335.8 630.16 323.6C574.34 281.17 554.81 235.11 538.74 197.21C531.22 179.47 524.47 163.57 515.14 151C510.26 144.43 504.8 139.3 499.04 135.41C487.64 127.71 475.1 124.88 463.68 125.26C452.33 125.63 442.17 129.14 435.42 134.15C434.12 135.12 432.95 136.14 431.94 137.2C434.37 140.16 436.51 143.3 438.44 146.59ZM543.24 332.26C514.17 303.36 505.96 263.42 498.77 228.4C495.43 212.12 492.31 196.95 487.36 184.74L486.79 183.35C482.42 173.15 475.74 163.77 467.35 158.16C460.24 153.4 451.79 151.4 442.4 154.1C444.55 158.62 446.43 163.34 448.19 168.15C451.28 169.52 454.31 171.72 457.13 175.04C459.99 178.42 462.64 182.99 464.86 189.06V189.08C468.08 197.89 470.32 207.73 472.73 218.35C479.86 249.8 488.58 288.2 529.82 322.62C533.91 326.03 538.43 329.25 543.24 332.26ZM375.6 255.91C375.65 261.94 375.72 273.45 375.61 277.61C377.78 281.21 384.6 287.08 389.83 283.3C389.18 292.29 377.89 290.92 371.42 285.33C364.95 290.93 353.66 292.29 353.01 283.3C358.24 287.08 365.07 281.21 367.23 277.61C367.12 273.45 367.19 261.95 367.24 255.91C359.26 254.47 348.76 249.29 358.55 240.18C358.57 240.2 365.81 247.98 371.4 247.98C376.98 247.98 384.23 240.2 384.25 240.18C394.04 249.28 383.58 254.47 375.6 255.91ZM422.72 197.22C427.42 197.22 431.23 203.33 431.23 210.86C431.23 218.39 427.42 224.5 422.72 224.5C418.02 224.5 414.21 218.39 414.21 210.86C414.21 203.33 418.02 197.22 422.72 197.22ZM320.1 197.22C324.8 197.22 328.61 203.33 328.61 210.86C328.61 218.39 324.8 224.5 320.1 224.5C315.4 224.5 311.59 218.39 311.59 210.86C311.59 203.33 315.4 197.22 320.1 197.22ZM273.58 239.54C266.11 267.92 253.48 299.67 218.37 328.99C199.35 344.86 171.98 356.55 146.87 362.8L146.48 362.92L146.47 362.9C133.16 366.18 120.51 367.94 110.08 367.97C101.23 368 93.79 366.79 88.64 364.24C82.34 361.12 79.15 356.23 80.2 349.41C81.44 341.41 89.66 330.66 107.63 317C161.67 275.92 180.73 230.98 196.41 194C204.14 175.76 211.08 159.4 220.99 146.06C226.48 138.66 232.63 132.89 239.11 128.52C252.08 119.76 266.37 116.54 279.39 116.97C292.48 117.4 304.35 121.56 312.35 127.5C313.91 128.66 315.33 129.89 316.6 131.17C328.11 120.59 344.91 113.77 371.42 113.77C397.93 113.77 414.73 120.58 426.24 131.17C427.51 129.89 428.92 128.66 430.48 127.5C438.48 121.56 450.35 117.41 463.43 116.97C476.45 116.54 490.74 119.76 503.71 128.52C510.19 132.9 516.34 138.66 521.83 146.06C531.74 159.4 538.68 175.76 546.41 194C562.09 230.98 581.15 275.92 635.19 317C653.16 330.66 661.39 341.41 662.62 349.41C663.67 356.23 660.48 361.12 654.18 364.24C649.04 366.79 641.6 367.99 632.75 367.97C622.32 367.93 609.66 366.18 596.36 362.9L596.35 362.92L595.96 362.8C570.84 356.55 543.47 344.86 524.46 328.99C489.34 299.67 476.72 267.92 469.24 239.54C469.44 241.5 469.59 243.43 469.68 245.33C470.47 261.77 467.23 276.08 459.63 287.93C456.77 292.39 453.31 296.48 449.22 300.2C469.63 315.8 491.73 346.77 503.84 381.93C512.07 405.85 515.73 431.77 511.22 456.27C516.74 452.5 523.14 450.42 529.8 449.81C536.63 449.19 543.72 450.13 550.39 452.41C557.07 454.69 563.36 458.3 568.6 463.01C579.49 472.8 585.9 487.27 581.95 504.38C577.49 523.72 567.05 545.19 555.2 561.13C543.55 576.79 530.2 587.35 519.03 586.19C518.17 586.1 517.33 585.98 516.51 585.83C491.61 585.31 443.25 571.89 435.26 569.63C425.49 572.85 415.33 574.16 405.86 573.67C403.91 573.57 401.99 573.39 400.1 573.14C404.55 587.23 404 601.05 395.63 612.11C394.66 613.39 393.58 614.56 392.38 615.63C381.81 625.12 362.51 626.6 342.01 622.65C322.11 618.81 300.82 609.85 285.5 598.26C281.28 595.07 277.5 591.67 274.3 588.11C268.6 581.77 264.84 573.57 263.09 564.76C261.94 558.99 261.65 552.93 262.22 546.93C258.7 541.78 256.36 534.32 254.74 526.18C241.22 530.15 231.09 527.98 223.95 522.55C219.68 519.3 216.56 514.91 214.47 509.96C212.45 505.17 211.41 499.87 211.24 494.63C210.84 482.11 215.54 469.64 223.9 464.83C229.3 461.72 234.82 460.77 240.04 461.1C244.23 461.37 248.2 462.47 251.75 463.94L251.84 463.23C253.19 452.74 255.38 440.92 258.02 429.2C255.66 408.48 257.37 386.79 262.8 366.51C269.16 342.78 280.63 320.89 296.68 304.59C297 304.26 297.33 303.94 297.66 303.62C291.76 299.06 286.95 293.82 283.19 287.95C275.59 276.1 272.34 261.8 273.14 245.35C273.23 243.43 273.38 241.5 273.58 239.54ZM199.58 332.26C204.39 329.26 208.91 326.04 213.02 322.61C254.26 288.19 262.97 249.78 270.11 218.34C272.52 207.73 274.75 197.88 277.98 189.07V189.05C280.2 182.98 282.84 178.41 285.71 175.03C288.52 171.71 291.55 169.51 294.65 168.14C296.41 163.33 298.29 158.61 300.44 154.09C291.05 151.39 282.6 153.39 275.49 158.15C267.1 163.76 260.42 173.15 256.05 183.34L255.47 184.73C250.52 196.94 247.4 212.11 244.06 228.39C236.86 263.42 228.65 303.36 199.58 332.26ZM310.87 137.22C309.86 136.16 308.69 135.14 307.39 134.17C300.64 129.16 290.47 125.65 279.13 125.28C267.71 124.9 255.17 127.73 243.77 135.43C238.02 139.32 232.55 144.44 227.67 151.02C218.33 163.59 211.59 179.5 204.07 197.23C188 235.13 168.47 281.19 112.65 323.62C96.61 335.81 89.37 344.69 88.44 350.69C88.03 353.36 89.49 355.38 92.31 356.79C96.29 358.76 102.47 359.69 110.06 359.67C119.81 359.64 131.6 358.02 144.02 355L144.01 354.98C213.96 333.48 225.94 275.19 235.89 226.75C239.32 210.03 242.53 194.44 247.72 181.62L248.36 180.08C253.32 168.54 261.02 157.82 270.83 151.25C280.35 144.88 291.72 142.37 304.37 146.6C306.31 143.3 308.46 140.16 310.87 137.22ZM396.59 564.07C399.67 564.75 402.93 565.17 406.29 565.35C419.71 566.05 434.67 562.7 447.37 554.96C459.95 547.29 470.29 535.29 474.61 518.62C475.12 516.64 475.55 514.59 475.89 512.47C469.78 514.99 463.46 515.52 457.43 514.53C452.06 513.64 446.95 511.53 442.46 508.5C437.98 505.47 434.08 501.54 431.12 497.03C423.87 485.97 422.04 471.36 430.5 457.61C440.16 441.91 447.7 422.99 451.37 404.37C452.34 399.43 453.19 394.51 453.8 389.69C448.56 379.38 444.09 364.55 439.75 350.18C435.37 335.68 431.14 321.67 426.74 314.19C425.76 314.61 424.76 315.01 423.74 315.4C409.76 320.81 392.44 324.13 371.6 325.13H371.21C356.16 324.4 342.95 322.47 331.51 319.42L331.27 319.92H331.25C330.63 321.2 329.93 322.46 329.17 323.71C327.59 326.31 326.15 328.92 324.85 331.52C314.17 353.01 312.75 375.32 319.3 395.45C325.87 415.67 340.48 433.78 361.81 446.78C364.79 448.6 367.9 450.31 371.12 451.92C382.76 457.7 388.36 468.95 388.85 481.13C389.11 487.44 387.97 494.01 385.58 500.15C383.19 506.31 379.53 512.06 374.75 516.74C371.95 519.48 368.78 521.85 365.25 523.73C378.28 534.92 389.86 549.4 396.59 564.07Z" fill="#1A1A1A"/>
<path d="M431.95 137.23C432.96 136.17 434.13 135.15 435.43 134.18C440.1 130.71 446.41 127.96 453.61 126.48C455.89 130 459.96 133.39 466.77 136.17C493.8 147.18 514.32 168.2 522.33 221.77C530.34 275.33 572.73 354.67 654.41 352.3C654.13 354.2 652.75 355.7 650.52 356.8C646.54 358.77 640.36 359.7 632.77 359.68C623.02 359.65 611.23 358.04 598.81 355.01L598.82 354.99C528.87 333.49 516.89 275.2 506.94 226.75C503.5 210.03 500.3 194.44 495.11 181.62L494.47 180.08C489.51 168.54 481.81 157.82 472 151.25C462.48 144.88 451.11 142.37 438.46 146.6C436.51 143.3 434.37 140.17 431.95 137.23Z" fill="#666666"/>
<path fill-rule="evenodd" clip-rule="evenodd" d="M317.7 202.22C318.98 202.22 320.02 204.15 320.02 206.54C320.02 208.93 318.98 210.86 317.7 210.86C316.42 210.86 315.38 208.93 315.38 206.54C315.38 204.15 316.42 202.22 317.7 202.22Z" fill="white"/>
<path fill-rule="evenodd" clip-rule="evenodd" d="M425.13 202.22C426.41 202.22 427.45 204.15 427.45 206.54C427.45 208.93 426.41 210.86 425.13 210.86C423.85 210.86 422.81 208.93 422.81 206.54C422.81 204.15 423.85 202.22 425.13 202.22Z" fill="white"/>
</g>
<defs>
<linearGradient id="paint0_linear_16:2" x1="0.23188" y1="370.006" x2="741" y2="370.006" gradientUnits="userSpaceOnUse">
<stop stop-color="#FF15E5"/>
<stop offset="0.5019" stop-color="#8289F3"/>
<stop offset="0.8439" stop-color="#34D2FC"/>
<stop offset="1" stop-color="#15EEFF"/>
</linearGradient>
<clipPath id="clip0_16:2">
<rect width="741" height="740" fill="white"/>
</clipPath>
</defs>
</svg>
