<?xml version="1.0" encoding="UTF-8" standalone="no"?>
<!-- Created with Inkscape (http://www.inkscape.org/) -->

<svg
   width="60.622211mm"
   height="11.630274mm"
   viewBox="0 0 60.622211 11.630274"
   version="1.1"
   id="svg5"
   xmlns="http://www.w3.org/2000/svg"
   xmlns:svg="http://www.w3.org/2000/svg">
  <defs
     id="defs2">
    <rect
       x="131.11031"
       y="280.18091"
       width="208.33965"
       height="91.597603"
       id="rect1623" />
    <rect
       x="116.74205"
       y="289.16107"
       width="264.01663"
       height="82.617447"
       id="rect473" />
    <clipPath
       clipPathUnits="userSpaceOnUse"
       id="clipPath1224">
      <circle
         style="fill:#ff0000;fill-rule:evenodd;stroke-width:1.12093"
         id="circle1226"
         cx="424.61499"
         cy="426.01001"
         r="327.9104" />
    </clipPath>
  </defs>
  <g
     id="layer1"
     transform="translate(-95.295263,-105.26498)">
    <text
       xml:space="preserve"
       transform="scale(0.26458333)"
       id="text471"
       style="font-style:normal;font-variant:normal;font-weight:300;font-stretch:normal;font-size:40px;line-height:1.25;font-family:Poppins;-inkscape-font-specification:'Poppins Light';white-space:pre;shape-inside:url(#rect473);fill:#000000;fill-opacity:1;stroke:none" />
    <text
       xml:space="preserve"
       transform="matrix(0.26458333,0,0,0.26458333,79.3584,31.339565)"
       id="text1621"
       style="font-style:normal;font-variant:normal;font-weight:300;font-stretch:normal;font-size:33.3333px;line-height:1.25;font-family:Poppins;-inkscape-font-specification:'Poppins Light';white-space:pre;shape-inside:url(#rect1623);fill:#000000;fill-opacity:1;stroke:none"><tspan
         x="131.10938"
         y="309.34828"
         id="tspan16205"><tspan
           style="font-weight:600;-inkscape-font-specification:'Poppins Semi-Bold';fill:#ffffff"
           id="tspan16203">SolBunny</tspan></tspan></text>
    <g
       id="g15228"
       transform="matrix(0.01773392,0,0,0.01773392,93.580312,103.52529)">
      <g
         id="Layer_2"
         clip-path="url(#clipPath1224)">
	<linearGradient
   id="SVGID_1_"
   gradientUnits="userSpaceOnUse"
   x1="54.231899"
   y1="426.00629"
   x2="795"
   y2="426.00629">
		<stop
   offset="0"
   style="stop-color:#FF15E5"
   id="stop4" />

		<stop
   offset="0.5019"
   style="stop-color:#8289F3"
   id="stop6" />

		<stop
   offset="0.8439"
   style="stop-color:#34D2FC"
   id="stop8" />

		<stop
   offset="1"
   style="stop-color:#15EEFF"
   id="stop10" />

	</linearGradient>

	<path
   class="st0"
   d="M 795,426.01 C 795,630.57 629.17,796.39 424.62,796.39 220.07,796.39 54.23,630.56 54.23,426.01 54.23,221.45 220.06,55.63 424.61,55.63 629.16,55.63 795,221.45 795,426.01 Z"
   id="path13"
   style="fill:url(#SVGID_1_)" />

</g>
      <g
         id="Layer_1">
	<path
   class="st1"
   d="m 319.09,589.45 c 2.73,-8.1 7.26,-15.53 13.63,-21.25 3.9,-3.5 8.48,-6.37 13.73,-8.35 -0.46,-0.44 -0.92,-0.88 -1.37,-1.32 -14.08,-13.86 -23.62,-31.84 -28.94,-51.6 -0.81,4.61 -1.5,9.09 -2.04,13.33 -1.18,9.21 -1.69,17.3 -1.21,23.18 l 0.43,5.77 c 0.88,12.04 2.1,28.68 5.77,40.24 z"
   id="path16" />

	<path
   class="st2"
   d="m 353.97,566.24 c -6.24,1.49 -11.46,4.36 -15.68,8.15 -5.94,5.33 -9.96,12.52 -12.13,20.33 -2.19,7.91 -2.46,16.45 -0.88,24.39 1.48,7.41 4.57,14.23 9.22,19.41 2.84,3.16 6.23,6.2 10.03,9.08 14.34,10.85 34.34,19.25 53.06,22.86 18.13,3.5 34.79,2.56 43.23,-5.03 0.8,-0.72 1.53,-1.5 2.17,-2.35 7.42,-9.8 6.82,-22.88 1.49,-36.17 -6.41,-15.99 -19.52,-32.14 -34.11,-43.75 -6.74,1.69 -14.38,1.71 -22.79,-0.54 -12.89,-3.46 -24.07,-9.09 -33.61,-16.38 z"
   id="path18" />

	<path
   class="st1"
   d="m 324.53,614.06 c 0.17,1.7 0.42,3.39 0.75,5.04 1.48,7.41 4.57,14.23 9.22,19.41 2.84,3.16 6.23,6.2 10.03,9.08 14.34,10.85 34.34,19.25 53.06,22.86 18.13,3.5 34.79,2.56 43.23,-5.03 0.8,-0.72 1.53,-1.5 2.17,-2.35 7.42,-9.8 6.82,-22.88 1.49,-36.17 -6.41,-15.99 -19.52,-32.14 -34.11,-43.75 -6.74,1.69 -14.38,1.71 -22.79,-0.54 -0.44,-0.12 -0.87,-0.24 -1.3,-0.36 5.39,6.39 13.75,16 22.11,24.37 14.02,14.02 20.52,43.55 -22.53,39.55 -43,-4 -61.3,-32.06 -61.33,-32.11 z"
   id="path20" />

	<path
   class="st2"
   d="m 552.66,631.68 c -1.45,-1.61 -2.76,-3.36 -3.94,-5.2 -5.33,-8.32 -7.87,-25.55 -0.8,-34.65 -0.22,8.25 1.79,20.77 7.8,30.16 4.01,6.26 9.88,11.06 18.16,11.92 7.95,0.83 18.65,-8.3 28.64,-21.73 11.23,-15.1 21.11,-35.4 25.32,-53.66 3.17,-13.75 -2.01,-25.41 -10.81,-33.32 -4.4,-3.96 -9.69,-6.99 -15.31,-8.91 -5.62,-1.92 -11.54,-2.72 -17.17,-2.21 -10.33,0.94 -19.82,6.37 -24.82,17.56 -2.48,6.34 -5.62,12.51 -9.5,18.44 -0.63,0.96 -1.36,2.02 -2.17,3.17 -2.86,4.02 -5.94,7.28 -9.17,9.86 -0.36,4.79 -1.12,9.32 -2.23,13.59 -4.92,18.99 -16.67,32.65 -30.95,41.36 -1.34,0.82 -2.71,1.59 -4.09,2.32 12.52,3.33 33.39,8.54 51.04,11.3 z"
   id="path22" />

	<path
   class="st1"
   d="m 552.66,631.68 c -1.45,-1.61 -2.76,-3.36 -3.94,-5.2 -5.33,-8.32 -7.87,-25.55 -0.8,-34.65 -0.22,8.25 1.79,20.77 7.8,30.16 4.01,6.26 9.88,11.06 18.16,11.92 7.95,0.83 18.65,-8.3 28.64,-21.73 7.64,-10.27 14.65,-22.94 19.68,-35.75 -13.32,26.41 -29.49,46.71 -50.62,40.21 -21.13,-6.51 2.03,-99.55 2.05,-99.61 -5.81,2.8 -10.74,7.56 -13.9,14.61 -2.48,6.34 -5.62,12.51 -9.5,18.44 -0.63,0.96 -1.36,2.02 -2.17,3.17 -2.86,4.02 -5.94,7.28 -9.17,9.86 -0.36,4.79 -1.12,9.32 -2.23,13.59 -4.92,18.99 -16.67,32.65 -30.95,41.36 -1.34,0.82 -2.71,1.59 -4.09,2.32 12.52,3.33 33.39,8.54 51.04,11.3 z"
   id="path24" />

	<path
   class="st1"
   d="m 307.36,573.89 c -1.2,-8.43 -1.83,-17.01 -2.34,-24.1 -0.14,-1.88 -0.27,-3.64 -0.43,-5.7 -0.34,-4.25 -0.23,-9.51 0.26,-15.44 -3.34,-1.66 -7.24,-2.99 -11.31,-3.25 -3.74,-0.24 -7.67,0.43 -11.47,2.62 -5.65,3.25 -8.8,12.63 -8.49,22.34 0.14,4.27 0.97,8.55 2.58,12.37 1.54,3.65 3.81,6.87 6.87,9.2 5.29,4.02 13.23,5.44 24.33,1.96 z"
   id="path26" />

	<path
   class="st2"
   d="m 358.71,364.41 c -0.67,0.59 -1.37,1.26 -2.08,1.99 -14.99,15.23 -25.76,35.83 -31.76,58.24 -6.08,22.68 -7.27,47.15 -3.04,69.78 4.2,22.45 13.72,43.05 29.09,58.18 10.25,10.09 23.13,17.77 38.82,21.97 14.16,3.79 25.51,-0.24 33.2,-7.76 3.92,-3.84 6.93,-8.58 8.9,-13.65 1.98,-5.09 2.92,-10.51 2.71,-15.69 -0.38,-9.29 -4.51,-17.8 -13.1,-22.07 -3.46,-1.72 -6.79,-3.56 -9.97,-5.49 -23.07,-14.07 -38.92,-33.78 -46.1,-55.86 -7.21,-22.17 -5.68,-46.66 6.01,-70.19 1.42,-2.85 2.97,-5.67 4.68,-8.47 0.52,-0.85 0.97,-1.65 1.36,-2.4 -1.49,-0.51 -2.94,-1.03 -4.36,-1.58 -5.25,-2.05 -10.03,-4.38 -14.36,-7 z"
   id="path28" />

	<path
   class="st1"
   d="m 358.71,364.41 c -0.67,0.59 -1.37,1.26 -2.08,1.99 -14.99,15.23 -25.76,35.83 -31.76,58.24 -6.08,22.68 -7.27,47.15 -3.04,69.78 4.2,22.45 13.72,43.05 29.09,58.18 10.25,10.09 23.13,17.77 38.82,21.97 14.16,3.79 25.51,-0.24 33.2,-7.76 3.92,-3.84 6.93,-8.58 8.9,-13.65 1.98,-5.09 2.92,-10.51 2.71,-15.69 -0.19,-4.76 -1.37,-9.33 -3.64,-13.21 -22.82,46.15 -98.58,18.01 -100.35,-47.97 -1.39,-51.62 22.98,-93.05 33.76,-108.76 -1.95,-1 -3.82,-2.03 -5.61,-3.12 z"
   id="path30" />

	<path
   class="st1"
   d="m 358.71,364.41 c -0.67,0.59 -1.37,1.26 -2.08,1.99 -2.58,2.62 -5.04,5.4 -7.36,8.32 5.54,3.86 11.95,7.21 19.25,10.04 0.68,0.26 1.37,0.52 2.07,0.78 0.27,-0.57 0.54,-1.13 0.82,-1.69 1.42,-2.85 2.97,-5.67 4.68,-8.47 0.52,-0.85 0.97,-1.65 1.36,-2.4 -1.49,-0.51 -2.94,-1.03 -4.36,-1.58 -5.27,-2.04 -10.05,-4.37 -14.38,-6.99 z"
   id="path32" />

	<path
   class="st1"
   d="m 425.41,178.11 c -52.55,0 -62.82,30.37 -73.22,61.15 -1.84,5.44 -3.68,10.9 -5.76,16.27 -6.58,17 -10.32,32.48 -10.98,46.2 -0.71,14.7 2.12,27.36 8.75,37.71 6.64,10.35 17.17,18.52 31.88,24.21 13.1,5.08 29.49,8.2 49.34,9.17 19.85,-0.97 36.23,-4.09 49.34,-9.17 14.7,-5.7 25.24,-13.86 31.87,-24.21 6.63,-10.34 9.46,-23.01 8.75,-37.71 -1.1,-22.73 -9.65,-41.48 -16.74,-62.47 -10.41,-30.78 -20.67,-61.15 -73.23,-61.15 z"
   id="path34" />

	<path
   class="st2"
   d="m 425.41,180.8 c -45.43,0 -54.3,26.25 -63.29,52.85 -1.59,4.71 -3.18,9.42 -4.98,14.06 -5.69,14.69 -8.92,28.07 -9.49,39.94 -0.61,12.7 1.83,23.65 7.56,32.59 5.74,8.95 14.84,16.01 27.55,20.93 11.33,4.39 25.49,7.09 42.65,7.93 17.16,-0.84 31.32,-3.54 42.65,-7.93 12.71,-4.92 21.81,-11.98 27.55,-20.93 5.73,-8.94 8.18,-19.89 7.56,-32.59 -0.95,-19.64 -8.34,-35.85 -14.47,-54 -8.99,-26.6 -17.86,-52.85 -63.29,-52.85 z"
   id="path36" />

	<path
   class="st2"
   d="m 488.27,366.6 c 4.83,8.6 9.08,22.67 13.47,37.2 2.21,7.31 4.45,14.74 6.79,21.55 -0.35,-4.15 -1.07,-8.12 -2.27,-11.87 12.51,3.9 9.55,37.06 7.3,48.48 -3.86,19.61 -11.8,39.51 -21.95,56.01 -6.54,10.63 -5.12,21.93 0.49,30.49 2.37,3.61 5.47,6.74 9.01,9.12 h 0.02 c 3.54,2.39 7.52,4.04 11.65,4.73 9.52,1.57 20.11,-2.04 28.51,-13.88 0.61,-0.86 1.27,-1.84 1.98,-2.91 20.49,-31.31 18.62,-70.24 6.69,-104.89 -11.93,-34.64 -33.77,-64.86 -53.46,-79.07 -2.56,1.8 -5.3,3.48 -8.23,5.04 z"
   id="path38" />

	<path
   class="st1"
   d="m 489.81,521.34 c -4.4,9.61 -2.74,19.47 2.29,27.12 2.37,3.61 5.47,6.74 9.01,9.12 h 0.02 c 3.54,2.39 7.52,4.04 11.65,4.73 9.52,1.57 20.11,-2.04 28.51,-13.88 0.61,-0.86 1.27,-1.84 1.98,-2.91 20.49,-31.31 18.62,-70.24 6.69,-104.89 -10.84,-31.48 -29.86,-59.3 -48.02,-74.78 37.22,42.3 47.62,100.37 46.12,125.9 -1.5,25.53 -13.26,46.81 -37.79,43.8 -13.59,-1.67 -18.65,-8.47 -20.46,-14.21 z"
   id="path40" />

	<path
   class="st1"
   d="m 488.27,366.6 c 1.96,3.49 3.82,7.88 5.64,12.83 4.91,-2.67 9.28,-5.64 13.13,-8.92 -3.54,-3.44 -7.08,-6.44 -10.55,-8.95 -2.55,1.8 -5.29,3.48 -8.22,5.04 z"
   id="path42" />

	<path
   class="st2"
   d="m 492.44,202.59 c 12.64,-4.23 24.02,-1.72 33.53,4.65 9.8,6.56 17.51,17.28 22.46,28.83 0.2,0.45 0.42,0.98 0.65,1.53 5.2,12.82 8.4,28.41 11.83,45.13 9.95,48.44 21.93,106.74 91.88,128.23 l -0.01,0.02 c 12.42,3.02 24.21,4.64 33.96,4.67 7.6,0.03 13.77,-0.91 17.75,-2.88 2.83,-1.4 4.29,-3.42 3.88,-6.1 -0.93,-6 -8.16,-14.87 -24.21,-27.07 -55.82,-42.43 -75.35,-88.49 -91.42,-126.39 -7.52,-17.74 -14.27,-33.64 -23.6,-46.21 -4.88,-6.57 -10.34,-11.7 -16.1,-15.59 -11.4,-7.7 -23.94,-10.53 -35.36,-10.15 -11.35,0.37 -21.51,3.88 -28.26,8.89 -1.3,0.97 -2.47,1.99 -3.48,3.05 2.43,2.96 4.57,6.1 6.5,9.39 z"
   id="path44" />

	<path
   class="st1"
   d="m 597.24,388.26 c -29.07,-28.9 -37.28,-68.84 -44.47,-103.86 -3.34,-16.28 -6.46,-31.45 -11.41,-43.66 l -0.57,-1.39 c -4.37,-10.2 -11.05,-19.58 -19.44,-25.19 -7.11,-4.76 -15.56,-6.76 -24.95,-4.06 2.15,4.52 4.03,9.24 5.79,14.05 3.09,1.37 6.12,3.57 8.94,6.89 2.86,3.38 5.51,7.95 7.73,14.02 v 0.02 c 3.22,8.81 5.46,18.65 7.87,29.27 7.13,31.45 15.85,69.85 57.09,104.27 4.09,3.41 8.61,6.63 13.42,9.64 z"
   id="path46" />

	<path
   class="st3"
   d="m 429.6,311.91 c 0.05,6.03 0.12,17.54 0.01,21.7 2.17,3.6 8.99,9.47 14.22,5.69 -0.65,8.99 -11.94,7.62 -18.41,2.03 -6.47,5.6 -17.76,6.96 -18.41,-2.03 5.23,3.78 12.06,-2.09 14.22,-5.69 -0.11,-4.16 -0.04,-15.66 0.01,-21.7 -7.98,-1.44 -18.48,-6.62 -8.69,-15.73 0.02,0.02 7.26,7.8 12.85,7.8 5.58,0 12.83,-7.78 12.85,-7.8 9.79,9.1 -0.67,14.29 -8.65,15.73 z"
   id="path48" />

	<path
   class="st3"
   d="m 476.72,253.22 c 4.7,0 8.51,6.11 8.51,13.64 0,7.53 -3.81,13.64 -8.51,13.64 -4.7,0 -8.51,-6.11 -8.51,-13.64 0,-7.53 3.81,-13.64 8.51,-13.64 z"
   id="path50" />

	<path
   class="st3"
   d="m 374.1,253.22 c 4.7,0 8.51,6.11 8.51,13.64 0,7.53 -3.81,13.64 -8.51,13.64 -4.7,0 -8.51,-6.11 -8.51,-13.64 0,-7.53 3.81,-13.64 8.51,-13.64 z"
   id="path52" />

	<path
   class="st1"
   d="m 253.58,388.26 c 4.81,-3 9.33,-6.22 13.44,-9.65 41.24,-34.42 49.95,-72.83 57.09,-104.27 2.41,-10.61 4.64,-20.46 7.87,-29.27 v -0.02 c 2.22,-6.07 4.86,-10.64 7.73,-14.02 2.81,-3.32 5.84,-5.52 8.94,-6.89 1.76,-4.81 3.64,-9.53 5.79,-14.05 -9.39,-2.7 -17.84,-0.7 -24.95,4.06 -8.39,5.61 -15.07,15 -19.44,25.19 l -0.58,1.39 c -4.95,12.21 -8.07,27.38 -11.41,43.66 -7.2,35.03 -15.41,74.97 -44.48,103.87 z"
   id="path54" />

	<path
   class="st2"
   d="m 364.87,193.22 c -1.01,-1.06 -2.18,-2.08 -3.48,-3.05 -6.75,-5.01 -16.92,-8.52 -28.26,-8.89 -11.42,-0.38 -23.96,2.45 -35.36,10.15 -5.75,3.89 -11.22,9.01 -16.1,15.59 -9.34,12.57 -16.08,28.48 -23.6,46.21 -16.07,37.9 -35.6,83.96 -91.42,126.39 -16.04,12.19 -23.28,21.07 -24.21,27.07 -0.41,2.67 1.05,4.69 3.87,6.1 3.98,1.97 10.16,2.9 17.75,2.88 9.75,-0.03 21.54,-1.65 33.96,-4.67 l -0.01,-0.02 c 69.95,-21.5 81.93,-79.79 91.88,-128.23 3.43,-16.72 6.64,-32.31 11.83,-45.13 l 0.64,-1.54 c 4.96,-11.54 12.66,-22.26 22.47,-28.83 9.52,-6.37 20.89,-8.88 33.54,-4.65 1.94,-3.3 4.09,-6.44 6.5,-9.38 z"
   id="path56" />

	<path
   class="st1"
   d="m 364.87,193.22 c -1.01,-1.06 -2.18,-2.08 -3.48,-3.05 -4.67,-3.47 -10.97,-6.21 -18.17,-7.7 -2.28,3.52 -6.35,6.91 -13.16,9.69 -27.03,11.01 -47.55,32.04 -55.56,85.6 -8.01,53.56 -50.4,132.9 -132.07,130.53 0.28,1.9 1.65,3.4 3.89,4.5 3.98,1.97 10.16,2.9 17.75,2.88 9.75,-0.03 21.54,-1.65 33.96,-4.67 l -0.01,-0.02 c 69.95,-21.5 81.93,-79.79 91.88,-128.23 3.43,-16.72 6.64,-32.31 11.83,-45.13 l 0.64,-1.54 c 4.96,-11.54 12.66,-22.26 22.47,-28.83 9.52,-6.37 20.89,-8.88 33.54,-4.65 1.93,-3.3 4.08,-6.44 6.49,-9.38 z"
   id="path58" />

	<path
   class="st2"
   d="m 450.59,620.07 c 3.08,0.68 6.34,1.1 9.7,1.28 13.42,0.7 28.38,-2.65 41.08,-10.39 12.58,-7.67 22.92,-19.67 27.24,-36.34 0.51,-1.98 0.94,-4.03 1.28,-6.15 -6.11,2.52 -12.43,3.05 -18.46,2.06 -5.37,-0.89 -10.48,-3 -14.97,-6.03 -4.48,-3.03 -8.38,-6.96 -11.34,-11.47 -7.25,-11.06 -9.08,-25.67 -0.62,-39.42 9.66,-15.7 17.2,-34.62 20.87,-53.24 0.97,-4.94 1.82,-9.86 2.43,-14.68 -5.24,-10.31 -9.71,-25.14 -14.05,-39.51 -4.38,-14.5 -8.61,-28.51 -13.01,-35.99 -0.98,0.42 -1.98,0.82 -3,1.21 -13.98,5.41 -31.3,8.73 -52.14,9.73 h -0.39 c -15.05,-0.73 -28.26,-2.66 -39.7,-5.71 l -0.24,0.5 h -0.02 c -0.62,1.28 -1.32,2.54 -2.08,3.79 -1.58,2.6 -3.02,5.21 -4.32,7.81 -10.68,21.49 -12.1,43.8 -5.55,63.93 6.57,20.22 21.18,38.33 42.51,51.33 2.98,1.82 6.09,3.53 9.31,5.14 11.64,5.78 17.24,17.03 17.73,29.21 0.26,6.31 -0.88,12.88 -3.27,19.02 -2.39,6.16 -6.05,11.91 -10.83,16.59 -2.8,2.74 -5.97,5.11 -9.5,6.99 13.03,11.19 24.61,25.67 31.34,40.34 z"
   id="path60" />

	<path
   class="st1"
   d="m 393.74,377.36 c -2.84,-0.59 -5.58,-1.23 -8.22,-1.94 l -0.24,0.5 h -0.02 c -0.62,1.28 -1.32,2.54 -2.08,3.79 -1.58,2.6 -3.02,5.21 -4.32,7.81 -10.68,21.49 -12.1,43.8 -5.55,63.93 3.42,10.53 9.02,20.49 16.62,29.45 -29.41,-51.55 -8.14,-88.66 3.81,-103.54 z"
   id="path62" />

	<path
   class="st1"
   d="m 450.59,620.07 c 3.08,0.68 6.34,1.1 9.7,1.28 13.42,0.7 28.38,-2.65 41.08,-10.39 12.58,-7.67 22.92,-19.67 27.24,-36.34 0.51,-1.98 0.94,-4.03 1.28,-6.15 -6.11,2.52 -12.43,3.05 -18.46,2.06 -5.37,-0.89 -10.48,-3 -14.97,-6.03 -4.48,-3.03 -8.38,-6.96 -11.34,-11.47 -2.27,-3.46 -4.01,-7.26 -5.06,-11.28 -2.39,4.5 -6.99,9.82 -15.6,11.07 -11.05,1.61 -19.05,-1.61 -22.74,-3.6 -0.53,2.35 -1.24,4.67 -2.12,6.93 -2.39,6.16 -6.05,11.91 -10.83,16.59 -2.8,2.74 -5.97,5.11 -9.5,6.99 13.01,11.19 24.59,25.67 31.32,40.34 z"
   id="path64" />

	<path
   class="st1"
   d="m 486.39,383.09 c -1.87,-5.2 -3.74,-9.67 -5.65,-12.9 -0.98,0.42 -1.98,0.82 -3,1.21 -13.98,5.41 -31.3,8.73 -52.14,9.73 h -0.39 c -15.05,-0.73 -28.26,-2.66 -39.7,-5.71 l -0.24,0.5 h -0.02 c -0.62,1.28 -1.32,2.54 -2.08,3.79 -1.58,2.6 -3.02,5.21 -4.32,7.81 l -0.31,0.63 c 13.2,3.87 28.78,6.3 46.86,7.18 22.89,-1.12 41.79,-4.72 56.9,-10.58 1.41,-0.52 2.77,-1.08 4.09,-1.66 z"
   id="path66" />

	<path
   class="st4"
   d="m 319.09,589.45 c 2.73,-8.1 7.26,-15.53 13.63,-21.25 3.9,-3.5 8.48,-6.37 13.73,-8.35 -0.46,-0.44 -0.92,-0.88 -1.37,-1.32 -14.08,-13.86 -23.62,-31.84 -28.94,-51.6 -0.81,4.61 -1.5,9.09 -2.04,13.33 -1.18,9.21 -1.69,17.3 -1.21,23.18 l 0.43,5.77 c 0.88,12.04 2.1,28.68 5.77,40.24 z m 34.88,-23.21 c -6.24,1.49 -11.46,4.36 -15.68,8.15 -5.94,5.33 -9.96,12.52 -12.13,20.33 -2.19,7.91 -2.46,16.45 -0.88,24.39 1.48,7.41 4.57,14.23 9.22,19.41 2.84,3.16 6.23,6.2 10.03,9.08 14.34,10.85 34.34,19.25 53.06,22.86 18.13,3.5 34.79,2.56 43.23,-5.03 0.8,-0.72 1.53,-1.5 2.17,-2.35 7.42,-9.8 6.82,-22.88 1.49,-36.17 -6.41,-15.99 -19.52,-32.14 -34.11,-43.75 -6.74,1.69 -14.38,1.71 -22.79,-0.54 -12.89,-3.46 -24.07,-9.09 -33.61,-16.38 z m 198.69,65.44 c -1.45,-1.61 -2.76,-3.36 -3.94,-5.2 -5.33,-8.32 -7.87,-25.55 -0.8,-34.65 -0.22,8.25 1.79,20.77 7.8,30.16 4.01,6.26 9.88,11.06 18.16,11.92 7.95,0.83 18.65,-8.3 28.64,-21.73 11.23,-15.1 21.11,-35.4 25.32,-53.66 3.17,-13.75 -2.01,-25.41 -10.81,-33.32 -4.4,-3.96 -9.69,-6.99 -15.31,-8.91 -5.62,-1.92 -11.54,-2.72 -17.17,-2.21 -10.33,0.94 -19.82,6.37 -24.82,17.56 -2.48,6.34 -5.62,12.51 -9.5,18.44 -0.63,0.96 -1.36,2.02 -2.17,3.17 -2.86,4.02 -5.94,7.28 -9.17,9.86 -0.36,4.79 -1.12,9.32 -2.23,13.59 -4.92,18.99 -16.67,32.65 -30.95,41.36 -1.34,0.82 -2.71,1.59 -4.09,2.32 12.52,3.33 33.39,8.54 51.04,11.3 z m -245.3,-57.79 c -1.2,-8.43 -1.83,-17.01 -2.34,-24.1 -0.14,-1.88 -0.27,-3.64 -0.43,-5.7 -0.34,-4.25 -0.23,-9.51 0.26,-15.44 -3.34,-1.66 -7.24,-2.99 -11.31,-3.25 -3.74,-0.24 -7.67,0.43 -11.47,2.62 -5.65,3.25 -8.8,12.63 -8.49,22.34 0.14,4.27 0.97,8.55 2.58,12.37 1.54,3.65 3.81,6.87 6.87,9.2 5.29,4.02 13.23,5.44 24.33,1.96 z m 51.35,-209.48 c -0.67,0.59 -1.37,1.26 -2.08,1.99 -14.99,15.23 -25.76,35.83 -31.76,58.24 -6.08,22.68 -7.27,47.15 -3.04,69.78 4.2,22.45 13.72,43.05 29.09,58.18 10.25,10.09 23.13,17.77 38.82,21.97 14.16,3.79 25.51,-0.24 33.2,-7.76 3.92,-3.84 6.93,-8.58 8.9,-13.65 1.98,-5.09 2.92,-10.51 2.71,-15.69 -0.38,-9.29 -4.51,-17.8 -13.1,-22.07 -3.46,-1.72 -6.79,-3.56 -9.97,-5.49 -23.07,-14.07 -38.92,-33.78 -46.1,-55.86 -7.21,-22.17 -5.68,-46.66 6.01,-70.19 1.42,-2.85 2.97,-5.67 4.68,-8.47 0.52,-0.85 0.97,-1.65 1.36,-2.4 -1.49,-0.51 -2.94,-1.03 -4.36,-1.58 -5.25,-2.05 -10.03,-4.38 -14.36,-7 z m 66.7,-186.3 c -52.55,0 -62.82,30.37 -73.22,61.15 -1.84,5.44 -3.68,10.9 -5.76,16.27 -6.58,17 -10.32,32.48 -10.98,46.2 -0.71,14.7 2.12,27.36 8.75,37.71 6.64,10.35 17.17,18.52 31.88,24.21 13.1,5.08 29.49,8.2 49.34,9.17 19.85,-0.97 36.23,-4.09 49.34,-9.17 14.7,-5.7 25.24,-13.86 31.87,-24.21 6.63,-10.34 9.46,-23.01 8.75,-37.71 -1.1,-22.73 -9.65,-41.48 -16.74,-62.47 -10.41,-30.78 -20.67,-61.15 -73.23,-61.15 z m 62.86,188.49 c 4.83,8.6 9.08,22.67 13.47,37.2 2.21,7.31 4.45,14.74 6.79,21.55 -0.35,-4.15 -1.07,-8.12 -2.27,-11.87 12.51,3.9 9.55,37.06 7.3,48.48 -3.86,19.61 -11.8,39.51 -21.95,56.01 -6.54,10.63 -5.12,21.93 0.49,30.49 2.37,3.61 5.47,6.74 9.01,9.12 h 0.02 c 3.54,2.39 7.52,4.04 11.65,4.73 9.52,1.57 20.11,-2.04 28.51,-13.88 0.61,-0.86 1.27,-1.84 1.98,-2.91 20.49,-31.31 18.62,-70.24 6.69,-104.89 -11.93,-34.64 -33.77,-64.86 -53.46,-79.07 -2.56,1.8 -5.3,3.48 -8.23,5.04 z m 4.17,-164.01 c 12.64,-4.23 24.02,-1.72 33.53,4.65 9.8,6.56 17.51,17.28 22.46,28.83 0.2,0.45 0.42,0.98 0.65,1.53 5.2,12.82 8.4,28.41 11.83,45.13 9.95,48.44 21.93,106.74 91.88,128.23 l -0.01,0.02 c 12.42,3.02 24.21,4.64 33.96,4.67 7.6,0.03 13.77,-0.91 17.75,-2.88 2.83,-1.4 4.29,-3.42 3.88,-6.1 -0.93,-6 -8.16,-14.87 -24.21,-27.07 -55.82,-42.43 -75.35,-88.49 -91.42,-126.39 -7.52,-17.74 -14.27,-33.64 -23.6,-46.21 -4.88,-6.57 -10.34,-11.7 -16.1,-15.59 -11.4,-7.7 -23.94,-10.53 -35.36,-10.15 -11.35,0.37 -21.51,3.88 -28.26,8.89 -1.3,0.97 -2.47,1.99 -3.48,3.05 2.43,2.96 4.57,6.1 6.5,9.39 z m 104.8,185.67 c -29.07,-28.9 -37.28,-68.84 -44.47,-103.86 -3.34,-16.28 -6.46,-31.45 -11.41,-43.66 l -0.57,-1.39 c -4.37,-10.2 -11.05,-19.58 -19.44,-25.19 -7.11,-4.76 -15.56,-6.76 -24.95,-4.06 2.15,4.52 4.03,9.24 5.79,14.05 3.09,1.37 6.12,3.57 8.94,6.89 2.86,3.38 5.51,7.95 7.73,14.02 v 0.02 c 3.22,8.81 5.46,18.65 7.87,29.27 7.13,31.45 15.85,69.85 57.09,104.27 4.09,3.41 8.61,6.63 13.42,9.64 z M 429.6,311.91 c 0.05,6.03 0.12,17.54 0.01,21.7 2.17,3.6 8.99,9.47 14.22,5.69 -0.65,8.99 -11.94,7.62 -18.41,2.03 -6.47,5.6 -17.76,6.96 -18.41,-2.03 5.23,3.78 12.06,-2.09 14.22,-5.69 -0.11,-4.16 -0.04,-15.66 0.01,-21.7 -7.98,-1.44 -18.48,-6.62 -8.69,-15.73 0.02,0.02 7.26,7.8 12.85,7.8 5.58,0 12.83,-7.78 12.85,-7.8 9.79,9.1 -0.67,14.29 -8.65,15.73 z m 47.12,-58.69 c 4.7,0 8.51,6.11 8.51,13.64 0,7.53 -3.81,13.64 -8.51,13.64 -4.7,0 -8.51,-6.11 -8.51,-13.64 0,-7.53 3.81,-13.64 8.51,-13.64 z m -102.62,0 c 4.7,0 8.51,6.11 8.51,13.64 0,7.53 -3.81,13.64 -8.51,13.64 -4.7,0 -8.51,-6.11 -8.51,-13.64 0,-7.53 3.81,-13.64 8.51,-13.64 z m -46.52,42.32 c -7.47,28.38 -20.1,60.13 -55.21,89.45 -19.02,15.87 -46.39,27.56 -71.5,33.81 l -0.39,0.12 -0.01,-0.02 c -13.31,3.28 -25.96,5.04 -36.39,5.07 -8.85,0.03 -16.29,-1.18 -21.44,-3.73 -6.3,-3.12 -9.49,-8.01 -8.44,-14.83 1.24,-8 9.46,-18.75 27.43,-32.41 54.04,-41.08 73.1,-86.02 88.78,-123 7.73,-18.24 14.67,-34.6 24.58,-47.94 5.49,-7.4 11.64,-13.17 18.12,-17.54 12.97,-8.76 27.26,-11.98 40.28,-11.55 13.09,0.43 24.96,4.59 32.96,10.53 1.56,1.16 2.98,2.39 4.25,3.67 11.51,-10.58 28.31,-17.4 54.82,-17.4 26.51,0 43.31,6.81 54.82,17.4 1.27,-1.28 2.68,-2.51 4.24,-3.67 8,-5.94 19.87,-10.09 32.95,-10.53 13.02,-0.43 27.31,2.79 40.28,11.55 6.48,4.38 12.63,10.14 18.12,17.54 9.91,13.34 16.85,29.7 24.58,47.94 15.68,36.98 34.74,81.92 88.78,123 17.97,13.66 26.2,24.41 27.43,32.41 1.05,6.82 -2.14,11.71 -8.44,14.83 -5.14,2.55 -12.58,3.75 -21.43,3.73 -10.43,-0.04 -23.09,-1.79 -36.39,-5.07 l -0.01,0.02 -0.39,-0.12 c -25.12,-6.25 -52.49,-17.94 -71.5,-33.81 -35.12,-29.32 -47.74,-61.07 -55.22,-89.45 0.2,1.96 0.35,3.89 0.44,5.79 0.79,16.44 -2.45,30.75 -10.05,42.6 -2.86,4.46 -6.32,8.55 -10.41,12.27 20.41,15.6 42.51,46.57 54.62,81.73 8.23,23.92 11.89,49.84 7.38,74.34 5.52,-3.77 11.92,-5.85 18.58,-6.46 6.83,-0.62 13.92,0.32 20.59,2.6 6.68,2.28 12.97,5.89 18.21,10.6 10.89,9.79 17.3,24.26 13.35,41.37 -4.46,19.34 -14.9,40.81 -26.75,56.75 -11.65,15.66 -25,26.22 -36.17,25.06 -0.86,-0.09 -1.7,-0.21 -2.52,-0.36 -24.9,-0.52 -73.26,-13.94 -81.25,-16.2 -9.77,3.22 -19.93,4.53 -29.4,4.04 -1.95,-0.1 -3.87,-0.28 -5.76,-0.53 4.45,14.09 3.9,27.91 -4.47,38.97 -0.97,1.28 -2.05,2.45 -3.25,3.52 -10.57,9.49 -29.87,10.97 -50.37,7.02 -19.9,-3.84 -41.19,-12.8 -56.51,-24.39 -4.22,-3.19 -8,-6.59 -11.2,-10.15 -5.7,-6.34 -9.46,-14.54 -11.21,-23.35 -1.15,-5.77 -1.44,-11.83 -0.87,-17.83 -3.52,-5.15 -5.86,-12.61 -7.48,-20.75 -13.52,3.97 -23.65,1.8 -30.79,-3.63 -4.27,-3.25 -7.39,-7.64 -9.48,-12.59 -2.02,-4.79 -3.06,-10.09 -3.23,-15.33 -0.4,-12.52 4.3,-24.99 12.66,-29.8 5.4,-3.11 10.92,-4.06 16.14,-3.73 4.19,0.27 8.16,1.37 11.71,2.84 l 0.09,-0.71 c 1.35,-10.49 3.54,-22.31 6.18,-34.03 -2.36,-20.72 -0.65,-42.41 4.78,-62.69 6.36,-23.73 17.83,-45.62 33.88,-61.92 0.32,-0.33 0.65,-0.65 0.98,-0.97 -5.9,-4.56 -10.71,-9.8 -14.47,-15.67 -7.6,-11.85 -10.85,-26.15 -10.05,-42.6 0.09,-1.92 0.24,-3.85 0.44,-5.81 z m -74,92.72 c 4.81,-3 9.33,-6.22 13.44,-9.65 41.24,-34.42 49.95,-72.83 57.09,-104.27 2.41,-10.61 4.64,-20.46 7.87,-29.27 v -0.02 c 2.22,-6.07 4.86,-10.64 7.73,-14.02 2.81,-3.32 5.84,-5.52 8.94,-6.89 1.76,-4.81 3.64,-9.53 5.79,-14.05 -9.39,-2.7 -17.84,-0.7 -24.95,4.06 -8.39,5.61 -15.07,15 -19.44,25.19 l -0.58,1.39 c -4.95,12.21 -8.07,27.38 -11.41,43.66 -7.2,35.03 -15.41,74.97 -44.48,103.87 z M 364.87,193.22 c -1.01,-1.06 -2.18,-2.08 -3.48,-3.05 -6.75,-5.01 -16.92,-8.52 -28.26,-8.89 -11.42,-0.38 -23.96,2.45 -35.36,10.15 -5.75,3.89 -11.22,9.01 -16.1,15.59 -9.34,12.57 -16.08,28.48 -23.6,46.21 -16.07,37.9 -35.6,83.96 -91.42,126.39 -16.04,12.19 -23.28,21.07 -24.21,27.07 -0.41,2.67 1.05,4.69 3.87,6.1 3.98,1.97 10.16,2.9 17.75,2.88 9.75,-0.03 21.54,-1.65 33.96,-4.67 l -0.01,-0.02 c 69.95,-21.5 81.93,-79.79 91.88,-128.23 3.43,-16.72 6.64,-32.31 11.83,-45.13 l 0.64,-1.54 c 4.96,-11.54 12.66,-22.26 22.47,-28.83 9.52,-6.37 20.89,-8.88 33.54,-4.65 1.94,-3.3 4.09,-6.44 6.5,-9.38 z m 85.72,426.85 c 3.08,0.68 6.34,1.1 9.7,1.28 13.42,0.7 28.38,-2.65 41.08,-10.39 12.58,-7.67 22.92,-19.67 27.24,-36.34 0.51,-1.98 0.94,-4.03 1.28,-6.15 -6.11,2.52 -12.43,3.05 -18.46,2.06 -5.37,-0.89 -10.48,-3 -14.97,-6.03 -4.48,-3.03 -8.38,-6.96 -11.34,-11.47 -7.25,-11.06 -9.08,-25.67 -0.62,-39.42 9.66,-15.7 17.2,-34.62 20.87,-53.24 0.97,-4.94 1.82,-9.86 2.43,-14.68 -5.24,-10.31 -9.71,-25.14 -14.05,-39.51 -4.38,-14.5 -8.61,-28.51 -13.01,-35.99 -0.98,0.42 -1.98,0.82 -3,1.21 -13.98,5.41 -31.3,8.73 -52.14,9.73 h -0.39 c -15.05,-0.73 -28.26,-2.66 -39.7,-5.71 l -0.24,0.5 h -0.02 c -0.62,1.28 -1.32,2.54 -2.08,3.79 -1.58,2.6 -3.02,5.21 -4.32,7.81 -10.68,21.49 -12.1,43.8 -5.55,63.93 6.57,20.22 21.18,38.33 42.51,51.33 2.98,1.82 6.09,3.53 9.31,5.14 11.64,5.78 17.24,17.03 17.73,29.21 0.26,6.31 -0.88,12.88 -3.27,19.02 -2.39,6.16 -6.05,11.91 -10.83,16.59 -2.8,2.74 -5.97,5.11 -9.5,6.99 13.03,11.19 24.61,25.67 31.34,40.34 z"
   id="path68" />

	<path
   class="st1"
   d="m 485.95,193.23 c 1.01,-1.06 2.18,-2.08 3.48,-3.05 4.67,-3.47 10.98,-6.22 18.18,-7.7 2.28,3.52 6.35,6.91 13.16,9.69 27.03,11.01 47.55,32.03 55.56,85.6 8.01,53.56 50.4,132.9 132.08,130.53 -0.28,1.9 -1.66,3.4 -3.89,4.5 -3.98,1.97 -10.16,2.9 -17.75,2.88 -9.75,-0.03 -21.54,-1.64 -33.96,-4.67 l 0.01,-0.02 C 582.87,389.49 570.89,331.2 560.94,282.75 557.5,266.03 554.3,250.44 549.11,237.62 l -0.64,-1.54 c -4.96,-11.54 -12.66,-22.26 -22.47,-28.83 -9.52,-6.37 -20.89,-8.88 -33.54,-4.65 -1.95,-3.3 -4.09,-6.43 -6.51,-9.37 z"
   id="path70" />

	<path
   class="st5"
   d="m 371.7,258.22 c 1.28,0 2.32,1.93 2.32,4.32 0,2.39 -1.04,4.32 -2.32,4.32 -1.28,0 -2.32,-1.93 -2.32,-4.32 0,-2.39 1.04,-4.32 2.32,-4.32 z"
   id="path72" />

	<path
   class="st5"
   d="m 479.13,258.22 c 1.28,0 2.32,1.93 2.32,4.32 0,2.39 -1.04,4.32 -2.32,4.32 -1.28,0 -2.32,-1.93 -2.32,-4.32 0,-2.39 1.04,-4.32 2.32,-4.32 z"
   id="path74" />

</g>
    </g>
  </g>
  <style
     type="text/css"
     id="style2">
	.st0{fill-rule:evenodd;clip-rule:evenodd;fill:url(#SVGID_1_);}
	.st1{fill:#666666;}
	.st2{fill:#999999;}
	.st3{fill:#FFFFFF;}
	.st4{fill:#1A1A1A;}
	.st5{fill-rule:evenodd;clip-rule:evenodd;fill:#FFFFFF;}
</style>
</svg>
